<?xml version="1.0" encoding="UTF-8"?>
<svg version="1.1" xmlns="http://www.w3.org/2000/svg" width="200" height="200">
<path d="M0 0 C3.125 0.375 3.125 0.375 6 1 C6.04254356 2.99954746 6.04080783 5.00041636 6 7 C5.67 7.33 5.34 7.66 5 8 C4.57642688 12.53158734 4.53480491 17.07656139 4.4375 21.625 C4.37498047 22.89730469 4.31246094 24.16960938 4.24804688 25.48046875 C3.98228769 32.37248469 3.98228769 32.37248469 6.78564453 38.42480469 C8.77771509 40.16558704 10.74968644 41.61681007 13 43 C13.33 43.33 13.66 43.66 14 44 C15.41695719 43.92558236 16.83117271 43.79791304 18.2421875 43.6484375 C29.25960454 42.91294913 38.25608152 44.38796331 46.8125 51.75 C55.70702323 60.28802932 56.25985898 69.63574625 56.59643555 81.37988281 C56.68519724 89.28098899 56.47672117 97.1658546 56.09619141 105.05712891 C56.06444824 106.35827637 56.03270508 107.65942383 56 109 C56.33 109.33 56.66 109.66 57 110 C57.04063832 111.66617115 57.042721 113.33388095 57 115 C54.6875 116.125 54.6875 116.125 52 117 C51.01 116.34 50.02 115.68 49 115 C48.75 112.4375 48.75 112.4375 49 110 C49.33 109.67 49.66 109.34 50 109 C53.42446869 81.95612507 53.42446869 81.95612507 45.44189453 57.30566406 C37.54381506 49.69811078 29.78294453 49.05384493 19.19067383 49.24023438 C13.04725467 49.30217961 9.11574342 49.1424582 4.125 45.375 C-3.34944166 36.3574478 -1.27885803 21.40153375 -0.96923828 10.23876953 C-0.88793998 7.04826174 -0.88793998 7.04826174 -1.62060547 4.19482422 C-1.74580566 3.47053223 -1.87100586 2.74624023 -2 2 C-1.34 1.34 -0.68 0.68 0 0 Z M2 3 C3 5 3 5 3 5 Z " fill="#FFFFFF" transform="translate(68,28)"/>
<path d="M0 0 C1.4540625 0.0309375 1.4540625 0.0309375 2.9375 0.0625 C3.2675 0.83980469 3.5975 1.61710937 3.9375 2.41796875 C8.75732226 11.86604199 16.52335761 21.09617982 25.9375 26.0625 C31.77712182 27.50637033 37.84752314 27.16309718 43.8125 26.9375 C62.33426726 26.32893112 62.33426726 26.32893112 68.31420898 30.77807617 C75.23450122 37.59399869 75.99282497 45.20025313 76.25 54.625 C76.21568812 57.86747246 76.12870663 61.09245868 75.9543457 64.33032227 C75.84447254 67.0803639 75.84447254 67.0803639 76.48901367 69.79272461 C76.9375 72.0625 76.9375 72.0625 75.9375 74.0625 C73.93795254 74.10504356 71.93708364 74.10330783 69.9375 74.0625 C68.9375 73.0625 68.9375 73.0625 68.8125 70.5625 C68.9375 68.0625 68.9375 68.0625 69.9375 67.0625 C70.4454771 63.28538893 70.54304299 59.49303936 70.6875 55.6875 C70.77515625 54.63949219 70.8628125 53.59148437 70.953125 52.51171875 C71.15097314 45.8425878 69.80506121 41.90195086 65.47265625 36.76171875 C61.63366573 33.02248396 58.43710737 31.49428967 52.92152405 31.4468689 C49.93161115 31.57990412 46.95615041 31.79819851 43.97512817 32.06280518 C34.79266321 32.79421631 25.14037093 33.47034137 17.49253845 27.6519928 C11.96276408 22.86883842 7.29758726 17.27151153 2.95336914 11.40673828 C0.82379857 8.93027751 -1.27970339 7.71309354 -4.0625 6.0625 C-4.4375 3.4375 -4.4375 3.4375 -4.0625 1.0625 C-3.0625 0.0625 -3.0625 0.0625 0 0 Z " fill="#FFFFFF" transform="translate(38.0625,58.9375)"/>
<path d="M0 0 C1.67542976 0.28604898 3.34385343 0.61781233 5 1 C5.6875 3.3125 5.6875 3.3125 6 6 C4.54299713 8.10455971 2.9850167 9.00864826 0.7734375 10.28515625 C-4.98265661 13.84420599 -10.82419635 17.84926759 -14 24 C-14.85867451 28.66214501 -14.61162046 33.31116122 -14.47924805 38.03076172 C-14.45247177 45.38489708 -14.45247177 45.38489708 -17.46875 48.7734375 C-19.00015625 49.84464844 -19.00015625 49.84464844 -20.5625 50.9375 C-24.52122942 53.9948887 -25.76196827 55.45813911 -26.53271484 60.45068359 C-27.19400048 69.53585358 -26.93671189 78.94564766 -26 88 C-25.67 88.33 -25.34 88.66 -25 89 C-24.875 92 -24.875 92 -25 95 C-26 96 -26 96 -28.4375 96.1875 C-31 96 -31 96 -33 94 C-32.70514131 92.3260982 -32.36210174 90.66065385 -32 89 C-31.97791699 86.4772793 -32.00469861 83.98074127 -32.0703125 81.4609375 C-32.08122172 79.97788413 -32.08892966 78.49480441 -32.09375 77.01171875 C-32.10156778 74.6991231 -32.12439725 72.39291839 -32.20214844 70.08154297 C-32.63311935 56.3406553 -32.63311935 56.3406553 -28.48217773 51.83764648 C-26.52406721 49.97754885 -24.47568768 48.25828423 -22.41894531 46.50390625 C-19.67375842 43.6622998 -19.2568043 42.55608552 -19.26953125 38.67578125 C-19.41857837 36.88507483 -19.60037415 35.09683381 -19.8125 33.3125 C-20.10538965 26.78611822 -19.83210957 22.29628243 -15.484375 17.1953125 C-12.08064343 13.72681404 -8.3918957 10.64194476 -4.64501953 7.55419922 C-2.58148327 5.60458927 -1.71639354 3.73031106 -1 1 C-0.67 0.67 -0.34 0.34 0 0 Z M-29 91 C-28 93 -28 93 -28 93 Z " fill="#FFFFFF" transform="translate(160,59)"/>
<path d="M0 0 C0.763125 0.226875 1.52625 0.45375 2.3125 0.6875 C3.4375 4.4375 3.4375 4.4375 2.3125 6.6875 C2.24493286 8.08569426 2.23911948 9.48714847 2.26586914 10.88671875 C2.27820084 11.75522461 2.29053253 12.62373047 2.30323792 13.51855469 C2.31789597 14.46118164 2.33255402 15.40380859 2.34765625 16.375 C2.353691 18.37369146 2.35685188 20.37239326 2.35742188 22.37109375 C2.35913413 25.52115792 2.37458858 28.66744841 2.43920898 31.81689453 C2.79080264 50.30109218 2.79080264 50.30109218 -0.98486328 55.35546875 C-3.43185126 57.80288822 -5.77919489 59.82238052 -8.6875 61.6875 C-4.2325 61.1925 -4.2325 61.1925 0.3125 60.6875 C1.7975 63.1625 1.7975 63.1625 3.3125 65.6875 C2.3225 67.0075 1.3325 68.3275 0.3125 69.6875 C-0.68330078 69.45740234 -0.68330078 69.45740234 -1.69921875 69.22265625 C-5.28905922 68.57976979 -8.86545419 68.33716009 -12.5 68.125 C-13.53930664 68.06022461 -13.53930664 68.06022461 -14.59960938 67.99414062 C-16.29538686 67.88888547 -17.99142052 67.78777137 -19.6875 67.6875 C-18.36676216 63.95343383 -15.96334998 62.26312076 -12.93167114 59.86265564 C-8.01972067 55.76143269 -4.52536117 52.07973597 -3.60644531 45.56982422 C-3.21449248 39.74011918 -3.50076407 33.95180877 -3.8125 28.125 C-3.86925658 26.09846583 -3.92008251 24.07175648 -3.96484375 22.04492188 C-3.93418603 13.20352723 -3.93418603 13.20352723 -5.27780151 4.53285217 C-5.6875 2.6875 -5.6875 2.6875 -4.5625 0.875 C-2.6875 -0.3125 -2.6875 -0.3125 0 0 Z M-1.6875 2.6875 C-0.6875 4.6875 -0.6875 4.6875 -0.6875 4.6875 Z " fill="#FFFFFF" transform="translate(100.6875,107.3125)"/>
<path d="M0 0 C0.625 2.375 0.625 2.375 1 5 C-1 7 -1 7 -5 8 C-5.33 13.28 -5.66 18.56 -6 24 C-13.5 24 -13.5 24 -15.81054688 23.9375 C-20.17367543 24.08040697 -23.08109312 25.28912282 -26.49609375 28.01953125 C-32.03441823 34.13911373 -30.88977437 41.98031348 -30.5625 49.6875 C-30.5308892 51.19849639 -30.50286498 52.70957228 -30.47851562 54.22070312 C-30.4124926 61.58276137 -30.4124926 61.58276137 -29.35131836 68.83911133 C-29.2353833 69.55220459 -29.11944824 70.26529785 -29 71 C-31 73 -31 73 -33.5625 73.1875 C-36 73 -36 73 -37 72 C-37.04080783 70.00041636 -37.04254356 67.99954746 -37 66 C-36.34 66 -35.68 66 -35 66 C-35.05760498 64.99735107 -35.11520996 63.99470215 -35.17456055 62.96166992 C-35.3757335 59.19245179 -35.50064444 55.42368974 -35.60424805 51.65063477 C-35.65911125 50.02742418 -35.73384364 48.40474564 -35.82983398 46.78344727 C-36.68816466 31.89806547 -36.68816466 31.89806547 -31.39118958 25.8573761 C-26.42097769 20.89592882 -23.16827712 19.40433258 -16.3125 19.3125 C-14.20309306 19.48696223 -12.09484415 19.6972415 -10 20 C-10.05220703 18.58847656 -10.05220703 18.58847656 -10.10546875 17.1484375 C-10.13253906 15.90320313 -10.15960938 14.65796875 -10.1875 13.375 C-10.23970703 11.53035156 -10.23970703 11.53035156 -10.29296875 9.6484375 C-9.97602776 5.70146571 -9.07512445 3.34632659 -7 0 C-4.3333581 -1.33332095 -2.83319697 -0.67102033 0 0 Z M-4 2 C-3 4 -3 4 -3 4 Z M-34 68 C-33 70 -33 70 -33 70 Z " fill="#FFFFFF" transform="translate(176,89)"/>
<path d="M0 0 C2.5625 0.1875 2.5625 0.1875 4.5625 2.1875 C4.92601562 3.22970703 4.92601562 3.22970703 5.296875 4.29296875 C8.7144404 12.1090674 14.93122675 19.31105642 22.5625 23.1875 C32.42701666 25.23154678 45.1189556 25.17875146 54.84863281 22.57592773 C56.5625 22.1875 56.5625 22.1875 58.375 23.3125 C59.5625 25.1875 59.5625 25.1875 59.25 27.875 C58.9096875 29.0196875 58.9096875 29.0196875 58.5625 30.1875 C56.90635343 30.56968767 55.23792976 30.90145102 53.5625 31.1875 C53.2325 30.8575 52.9025 30.5275 52.5625 30.1875 C50.50172732 30.27491287 48.44314302 30.41439303 46.38671875 30.57421875 C23.58065537 31.65447608 23.58065537 31.65447608 15.23046875 24.7421875 C10.92626915 20.55700857 7.07012461 16.04013604 3.47412109 11.23461914 C1.32152438 8.92944373 -0.45835168 8.13032945 -3.4375 7.1875 C-3.48004356 5.18795254 -3.47830783 3.18708364 -3.4375 1.1875 C-2.4375 0.1875 -2.4375 0.1875 0 0 Z M-0.4375 3.1875 C0.5625 5.1875 0.5625 5.1875 0.5625 5.1875 Z " fill="#FFFFFF" transform="translate(33.4375,73.8125)"/>
<path d="M0 0 C4.55555556 0.55555556 4.55555556 0.55555556 6 2 C6.125 4.5 6.125 4.5 6 7 C5.67 7.33 5.34 7.66 5 8 C4.89787215 11.27943871 4.80114421 14.55295335 4.83398438 17.83398438 C4.76705383 20.0305231 4.62693643 21.88975181 4 24 C3.00226563 24.86109375 2.00453125 25.7221875 0.9765625 26.609375 C-1.48614459 28.76823445 -1.96723117 29.80000146 -2.50805664 33.10083008 C-2.6267509 36.93673106 -2.57144364 40.72718409 -2.4375 44.5625 C-2.41880859 45.87669922 -2.40011719 47.19089844 -2.38085938 48.54492188 C-2.33224531 55.21774881 -2.33224531 55.21774881 -1.35571289 61.78881836 C-1.23832764 62.5185083 -1.12094238 63.24819824 -1 64 C-1.99 64.99 -1.99 64.99 -3 66 C-7.55555556 65.44444444 -7.55555556 65.44444444 -9 64 C-9.125 61.5 -9.125 61.5 -9 59 C-8.505 58.505 -8.505 58.505 -8 58 C-7.9146721 55.85166683 -7.89181891 53.70080657 -7.89453125 51.55078125 C-7.88106511 50.21417667 -7.86604013 48.87758705 -7.84960938 47.54101562 C-7.82685123 45.4318497 -7.8124296 43.32435915 -7.82495117 41.21508789 C-7.87687943 29.30106032 -7.87687943 29.30106032 -5.6262207 25.96166992 C-4.10665835 24.61527066 -2.55464244 23.30573643 -1 22 C-0.24404271 18.38864011 -0.24404271 18.38864011 -0.5625 14.6875 C-0.62630859 12.83705078 -0.62630859 12.83705078 -0.69140625 10.94921875 C-0.67506269 8.11504384 -0.67506269 8.11504384 -2 7 C-2.1875 4.5625 -2.1875 4.5625 -2 2 C-1.34 1.34 -0.68 0.68 0 0 Z M-6 61 C-5.67 61.66 -5.34 62.32 -5 63 C-4.67 62.34 -4.34 61.68 -4 61 C-4.66 61 -5.32 61 -6 61 Z " fill="#FFFFFF" transform="translate(137,35)"/>
<path d="M0 0 C3.20638837 1.40680788 5.29181592 3.07577457 7.71484375 5.58984375 C8.74448242 6.64268555 8.74448242 6.64268555 9.79492188 7.71679688 C11.21947221 9.19329071 12.64395177 10.66985284 14.06835938 12.14648438 C17.54836803 15.70476877 20.66045224 18.50706831 25 21 C25.375 23.625 25.375 23.625 25 26 C24 27 24 27 20.9375 27.0625 C19.968125 27.041875 18.99875 27.02125 18 27 C17.61199219 26.12085938 17.22398438 25.24171875 16.82421875 24.3359375 C14.87008895 20.76243248 12.74029677 18.43872677 9.8125 15.625 C8.91144531 14.75101563 8.01039062 13.87703125 7.08203125 12.9765625 C6.05142578 11.99816406 6.05142578 11.99816406 5 11 C4.97314905 13.47923801 4.95323453 15.9581884 4.9375 18.4375 C4.92912109 19.14455078 4.92074219 19.85160156 4.91210938 20.58007812 C4.90346412 22.38693559 4.94779989 24.19387603 5 26 C5.33 26.33 5.66 26.66 6 27 C6.04063832 28.66617115 6.042721 30.33388095 6 32 C4.35 32.66 2.7 33.32 1 34 C-0.5625 32.8125 -0.5625 32.8125 -2 31 C-1.7065691 29.32584732 -1.3649801 27.66002362 -1 26 C-0.85708812 23.94366635 -0.75463062 21.88428808 -0.68359375 19.82421875 C-0.64169922 18.66728516 -0.59980469 17.51035156 -0.55664062 16.31835938 C-0.51732422 15.12017578 -0.47800781 13.92199219 -0.4375 12.6875 C-0.39431641 11.46998047 -0.35113281 10.25246094 -0.30664062 8.99804688 C-0.20078504 5.9988053 -0.09870274 2.99948409 0 0 Z " fill="#FFFFFF" transform="translate(108,143)"/>
<path d="M0 0 C2.5625 0.1875 2.5625 0.1875 4.5625 2.1875 C4.26298451 3.86057482 3.9199659 5.52584209 3.5625 7.1875 C3.51720444 10.02342671 3.52048404 12.83763388 3.5625 15.671875 C3.56365867 17.34635427 3.56227576 19.02083688 3.55859375 20.6953125 C3.5541849 23.31417068 3.56234193 25.92945216 3.61376953 28.54785156 C3.8766019 43.19453101 3.8766019 43.19453101 0.5625 48.22070312 C-1.875 50.578125 -1.875 50.578125 -4.30859375 52.40722656 C-6.77325103 54.46826795 -7.48562059 56.15891099 -8.4375 59.1875 C-10.43704746 59.23004356 -12.43791636 59.22830783 -14.4375 59.1875 C-15.4375 58.1875 -15.4375 58.1875 -15.625 55.75 C-15.4375 53.1875 -15.4375 53.1875 -13.4375 51.1875 C-12.695 50.94 -11.9525 50.6925 -11.1875 50.4375 C-7.43386735 48.73130334 -4.8359573 46.55612622 -2.4375 43.1875 C-1.89389998 40.16295139 -1.70245781 37.9753934 -1.81640625 34.98046875 C-1.82252426 34.21446854 -1.82864227 33.44846832 -1.83494568 32.65925598 C-1.8617449 30.229796 -1.93085968 27.80358391 -2 25.375 C-2.02153838 23.72464193 -2.04044561 22.07424728 -2.05664062 20.42382812 C-1.54456407 13.30883381 -1.54456407 13.30883381 -3.4375 7.1875 C-3.5625 4.1875 -3.5625 4.1875 -3.4375 1.1875 C-2.4375 0.1875 -2.4375 0.1875 0 0 Z M-0.4375 3.1875 C0.5625 5.1875 0.5625 5.1875 0.5625 5.1875 Z " fill="#FFFFFF" transform="translate(88.4375,110.8125)"/>
<path d="M0 0 C2.5625 0.1875 2.5625 0.1875 4.5625 2.1875 C4.25 4.25 4.25 4.25 3.5625 7.1875 C3.56749512 7.8158374 3.57249023 8.4441748 3.57763672 9.09155273 C3.4949895 16.85071947 -0.69442731 20.93929592 -6 26.1875 C-7.27109619 27.46246338 -7.27109619 27.46246338 -8.56787109 28.76318359 C-13.90170948 33.75450931 -18.11907105 36.8125 -25.5625 36.8125 C-27.85811006 36.65339831 -30.15277435 36.46166708 -32.4375 36.1875 C-32.9325 36.6825 -32.9325 36.6825 -33.4375 37.1875 C-35.9375 37.3125 -35.9375 37.3125 -38.4375 37.1875 C-39.4375 36.1875 -39.4375 36.1875 -39.5625 33.1875 C-39.4375 30.1875 -39.4375 30.1875 -38.4375 29.1875 C-35.9375 29.0625 -35.9375 29.0625 -33.4375 29.1875 C-33.1075 29.5175 -32.7775 29.8475 -32.4375 30.1875 C-27.69692202 31.39224839 -23.09639968 31.83365172 -18.4375 30.1875 C-15.11854109 27.98673579 -12.3582625 25.38782732 -9.5625 22.5625 C-8.85472412 21.85101807 -8.14694824 21.13953613 -7.41772461 20.40649414 C-3.49013819 16.17185553 -3.49013819 16.17185553 -1.9296875 10.7265625 C-2.17856768 8.26153225 -2.17856768 8.26153225 -3.4375 7.1875 C-3.5625 4.1875 -3.5625 4.1875 -3.4375 1.1875 C-2.4375 0.1875 -2.4375 0.1875 0 0 Z M-0.4375 3.1875 C0.5625 5.1875 0.5625 5.1875 0.5625 5.1875 Z M-36.4375 32.1875 C-35.4375 34.1875 -35.4375 34.1875 -35.4375 34.1875 Z " fill="#FFFFFF" transform="translate(124.4375,27.8125)"/>
<path d="M0 0 C2.5625 0.9375 2.5625 0.9375 3.86206055 3.6105957 C5.85199994 7.50390569 8.25090864 10.05935791 11.33203125 13.10546875 C11.89065353 13.66696121 12.44927582 14.22845367 13.02482605 14.80696106 C14.2020761 15.98624288 15.38308435 17.1617837 16.56762695 18.33374023 C18.36963574 20.11968356 20.15507593 21.9210691 21.93945312 23.72460938 C23.09018523 24.8733589 24.2418477 26.02117737 25.39453125 27.16796875 C25.92287064 27.70238083 26.45121002 28.23679291 26.99555969 28.78739929 C30.25390259 31.98537333 33.31921948 34.0882713 37.5625 35.9375 C37.6875 38.3125 37.6875 38.3125 37.5625 40.9375 C36.9025 41.5975 36.2425 42.2575 35.5625 42.9375 C33.125 42.9375 33.125 42.9375 30.5625 41.9375 C30.13888184 41.05932617 29.71526367 40.18115234 29.27880859 39.27636719 C27.22821895 35.28719735 24.70152466 32.64375774 21.5390625 29.515625 C20.6642775 28.63653473 20.6642775 28.63653473 19.77182007 27.73968506 C18.54329568 26.50912856 17.31101209 25.28231478 16.07519531 24.05908203 C14.18976702 22.18974767 12.32091533 20.30490835 10.453125 18.41796875 C9.2535651 17.22039087 8.05307514 16.02374371 6.8515625 14.828125 C6.29618805 14.26667786 5.7408136 13.70523071 5.16860962 13.12677002 C2.16563735 10.17732758 -0.37927512 8.15449722 -4.4375 6.9375 C-4.4375 4.9575 -4.4375 2.9775 -4.4375 0.9375 C-2.4375 -0.0625 -2.4375 -0.0625 0 0 Z M-1.4375 2.9375 C-1.4375 3.5975 -1.4375 4.2575 -1.4375 4.9375 C-0.7775 4.6075 -0.1175 4.2775 0.5625 3.9375 C-0.0975 3.6075 -0.7575 3.2775 -1.4375 2.9375 Z " fill="#FFFFFF" transform="translate(41.4375,99.0625)"/>
<path d="M0 0 C2.5625 0.5625 2.5625 0.5625 5 2 C5.28488281 2.75539063 5.56976563 3.51078125 5.86328125 4.2890625 C7.24339603 7.58047025 9.05630982 9.35389654 11.625 11.8125 C12.44226563 12.60269531 13.25953125 13.39289062 14.1015625 14.20703125 C14.72804688 14.79871094 15.35453125 15.39039063 16 16 C14.58078595 17.70104379 13.14728893 19.38373867 11.68359375 21.046875 C10.01476571 22.92690448 10.01476571 22.92690448 8.72265625 24.765625 C6.26714347 27.84061365 4.73027535 28.87387757 0.765625 29.55859375 C-1.57621047 29.72477203 -3.92246779 29.83883822 -6.26953125 29.89453125 C-8.91349783 29.6870688 -8.91349783 29.6870688 -10 31 C-12.5 31.125 -12.5 31.125 -15 31 C-16 30 -16 30 -16.125 27 C-16 24 -16 24 -15 23 C-12.5 22.875 -12.5 22.875 -10 23 C-9.67 23.33 -9.34 23.66 -9 24 C-4.28011447 24.71859849 0.22121127 25.2162658 4.28515625 22.4375 C5.99255909 20.69854351 7.54167769 18.95106602 9 17 C5.44984265 12.40493818 2.52289491 9.23545746 -3 7 C-3.1875 4.625 -3.1875 4.625 -3 2 C-2.01 1.34 -1.02 0.68 0 0 Z M-13 26 C-12 28 -12 28 -12 28 Z " fill="#FFFFFF" transform="translate(101,23)"/>
<path d="M0 0 C2.5625 0.1875 2.5625 0.1875 4.5625 2.1875 C4.84399902 2.95795654 5.12549805 3.72841309 5.41552734 4.5222168 C6.77716588 7.68633087 8.45862847 9.4257059 10.9140625 11.83203125 C11.76484375 12.67314453 12.615625 13.51425781 13.4921875 14.38085938 C14.38164063 15.24517578 15.27109375 16.10949219 16.1875 17 C17.0846875 17.88365234 17.981875 18.76730469 18.90625 19.67773438 C21.11838998 21.85457425 23.33723073 24.02409664 25.5625 26.1875 C25.14170166 26.65945801 24.72090332 27.13141602 24.28735352 27.61767578 C23.46642212 28.55329346 23.46642212 28.55329346 22.62890625 29.5078125 C22.08435791 30.12414551 21.53980957 30.74047852 20.97875977 31.37548828 C19.38078932 33.23045163 19.38078932 33.23045163 18.5 36.0625 C18.190625 36.76375 17.88125 37.465 17.5625 38.1875 C15.0625 39.125 15.0625 39.125 12.5625 39.1875 C10.5625 37.1875 10.5625 37.1875 10.4375 34.5625 C10.499375 33.386875 10.499375 33.386875 10.5625 32.1875 C11.51125 31.754375 12.46 31.32125 13.4375 30.875 C16.76291937 29.39447799 16.76291937 29.39447799 18.5625 26.1875 C15.84579238 23.38347443 13.11210676 20.59660532 10.375 17.8125 C9.60607422 17.0184375 8.83714844 16.224375 8.04492188 15.40625 C7.29404297 14.64570313 6.54316406 13.88515625 5.76953125 13.1015625 C5.0835083 12.3998291 4.39748535 11.6980957 3.69067383 10.97509766 C1.41120498 9.06041704 -0.63194793 8.13482927 -3.4375 7.1875 C-3.48004356 5.18795254 -3.47830783 3.18708364 -3.4375 1.1875 C-2.4375 0.1875 -2.4375 0.1875 0 0 Z M-0.4375 3.1875 C0.5625 5.1875 0.5625 5.1875 0.5625 5.1875 Z " fill="#FFFFFF" transform="translate(51.4375,127.8125)"/>
<path d="M0 0 C1.4540625 0.0309375 1.4540625 0.0309375 2.9375 0.0625 C3.55625 1.42375 3.55625 1.42375 4.1875 2.8125 C5.68012789 6.07537822 5.68012789 6.07537822 8.0625 7.8125 C10.30135917 10.49913101 10.14206542 11.46735115 10.25 14.875 C10.50270886 19.04777801 11.25691092 21.05628281 14.1875 24.0625 C16.91503592 26.45330309 19.42110923 28.02826742 22.9375 29.0625 C23.9375 30.0625 23.9375 30.0625 24.0625 32.5625 C23.9375 35.0625 23.9375 35.0625 22.9375 36.0625 C20.93791636 36.10330783 18.93704746 36.10504356 16.9375 36.0625 C16.6075 35.2375 16.2775 34.4125 15.9375 33.5625 C14.42911036 30.42856425 12.40659948 28.59977051 9.8125 26.3125 C6.50845974 23.18900839 5.42302069 21.2997825 5.125 16.75 C5.14626953 15.51830078 5.14626953 15.51830078 5.16796875 14.26171875 C5.12659024 11.99022825 5.12659024 11.99022825 3.58984375 10.33984375 C1.52016995 8.73988315 -0.61838871 7.96296205 -3.0625 7.0625 C-4.0625 6.0625 -4.0625 6.0625 -4.1875 3.5625 C-4.00295237 -0.12845252 -3.76342282 0.07680455 0 0 Z " fill="#FFFFFF" transform="translate(48.0625,43.9375)"/>
<path d="M0 0 C1.67542976 0.28604898 3.34385343 0.61781233 5 1 C5.625 3.375 5.625 3.375 6 6 C4 8 4 8 1.4375 8.1875 C-1 8 -1 8 -2 7 C-4.95817107 6.74994614 -4.95817107 6.74994614 -8 7 C-10.32866229 8.88846183 -10.32866229 8.88846183 -10.1953125 12.0390625 C-10.17210937 13.22242188 -10.14890625 14.40578125 -10.125 15.625 C-10.10695312 16.81351563 -10.08890625 18.00203125 -10.0703125 19.2265625 C-10.04710937 20.14179688 -10.02390625 21.05703125 -10 22 C-9.19433594 22.2784375 -8.38867188 22.556875 -7.55859375 22.84375 C-6.71425781 23.2253125 -5.86992187 23.606875 -5 24 C-4.0625 26.5 -4.0625 26.5 -4 29 C-6 31 -6 31 -8.625 31.125 C-9.40875 31.08375 -10.1925 31.0425 -11 31 C-11.474375 30.030625 -11.94875 29.06125 -12.4375 28.0625 C-13.70193947 25.19522563 -13.70193947 25.19522563 -15 24 C-15.20785733 21.23252818 -15.32462012 18.52089342 -15.375 15.75 C-15.41238281 14.98558594 -15.44976562 14.22117188 -15.48828125 13.43359375 C-15.55376664 9.22070004 -15.36332683 7.48953509 -12.7734375 4 C-9.95625043 1.96845102 -8.65426343 1.36423703 -5.25 1.25 C-2.32654961 1.34370124 -2.32654961 1.34370124 0 0 Z M1 3 C1 3.66 1 4.32 1 5 C1.66 4.67 2.32 4.34 3 4 C2.34 3.67 1.68 3.34 1 3 Z M-9 26 C-8 28 -8 28 -8 28 Z " fill="#FFFFFF" transform="translate(166,118)"/>
<path d="M0 0 C1.1446875 0.3403125 1.1446875 0.3403125 2.3125 0.6875 C3.4375 4.4375 3.4375 4.4375 2.3125 6.6875 C1.41683699 13.9202813 1.41683699 13.9202813 3.44140625 20.70703125 C6.56263143 23.92604939 10.19486715 25.92280021 14.3125 27.6875 C14.4375 30.0625 14.4375 30.0625 14.3125 32.6875 C13.6525 33.3475 12.9925 34.0075 12.3125 34.6875 C9.875 34.6875 9.875 34.6875 7.3125 33.6875 C6.29313057 31.69730253 5.29787521 29.6947458 4.3125 27.6875 C2.95703266 26.47775228 1.57975644 25.29222032 0.1875 24.125 C-3.57161415 20.57205299 -4.28574031 18.0723967 -4.625 12.9375 C-4.63402344 11.84953125 -4.64304687 10.7615625 -4.65234375 9.640625 C-4.57181527 6.77337495 -4.57181527 6.77337495 -5.26171875 4.41015625 C-5.40222656 3.84167969 -5.54273437 3.27320312 -5.6875 2.6875 C-3.97309355 -0.07459928 -3.26180423 -0.37927956 0 0 Z M-1.6875 2.6875 C-0.6875 4.6875 -0.6875 4.6875 -0.6875 4.6875 Z " fill="#FFFFFF" transform="translate(28.6875,89.3125)"/>
<path d="M0 0 C1.98 0 3.96 0 6 0 C6.625 2.875 6.625 2.875 7 6 C5 8 5 8 2.6796875 8.875 C-2.28933284 10.96111933 -5.9969155 14.56560129 -9 19 C-9.30286556 21.91663684 -9.02020612 24.09208033 -8.33984375 26.93359375 C-8.22769531 27.61550781 -8.11554688 28.29742187 -8 29 C-8.66 29.66 -9.32 30.32 -10 31 C-12.625 30.625 -12.625 30.625 -15 30 C-16.47734948 25.83656055 -15.85208047 22.58137025 -14.42578125 18.5390625 C-11.94806722 14.12669505 -8.20563238 10.94774574 -4.49609375 7.578125 C-2.06164947 5.0636755 -1.00586714 3.30924337 0 0 Z M2 3 C2.33 3.66 2.66 4.32 3 5 C3.33 4.34 3.66 3.68 4 3 C3.34 3 2.68 3 2 3 Z " fill="#FFFFFF" transform="translate(166,74)"/>
<path d="M0 0 C2 1 2 1 3.1875 3.5 C6.69490145 10.27291314 11.94328407 15.23075519 19 18 C19.9375 20.5 19.9375 20.5 20 23 C18 25 18 25 15.375 25.125 C14.59125 25.08375 13.8075 25.0425 13 25 C12.5359375 23.7934375 12.5359375 23.7934375 12.0625 22.5625 C9.29849867 17.02127245 4.04694532 11.19096008 -1.73828125 8.9296875 C-2.48464844 8.62289062 -3.23101562 8.31609375 -4 8 C-4.8125 4.875 -4.8125 4.875 -5 2 C-2 0 -2 0 0 0 Z M15 20 C16 22 16 22 16 22 Z " fill="#FFFFFF" transform="translate(38,131)"/>
<path d="M0 0 C2.25 0.5 2.25 0.5 3.25 1.5 C3.625 3.875 3.625 3.875 3.25 6.5 C2.445625 6.95375 1.64125 7.4075 0.8125 7.875 C-0.4559375 8.679375 -0.4559375 8.679375 -1.75 9.5 C-2.64592083 13.09919423 -2.64592083 13.09919423 -2.75 16.5 C-1.945625 16.644375 -1.14125 16.78875 -0.3125 16.9375 C2.25 17.5 2.25 17.5 3.25 18.5 C3.375 21 3.375 21 3.25 23.5 C2.25 24.5 2.25 24.5 -0.8125 24.5625 C-1.781875 24.541875 -2.75125 24.52125 -3.75 24.5 C-4.224375 23.530625 -4.69875 22.56125 -5.1875 21.5625 C-6.45193947 18.69522563 -6.45193947 18.69522563 -7.75 17.5 C-8.44110371 12.34634093 -8.46838017 7.82035901 -5.5625 3.375 C-3.6155339 1.01201551 -3.1106964 0.56558116 0 0 Z M-1.75 3.5 C-1.75 4.16 -1.75 4.82 -1.75 5.5 C-1.09 5.5 -0.43 5.5 0.25 5.5 C0.25 4.84 0.25 4.18 0.25 3.5 C-0.41 3.5 -1.07 3.5 -1.75 3.5 Z " fill="#FFFFFF" transform="translate(122.75,55.5)"/>
<path d="M0 0 C1.67929755 0.26239024 3.34327363 0.62033354 5 1 C8.32827768 1.38736463 11.66320878 1.69547731 15 2 C15.06058594 2.66386719 15.12117188 3.32773438 15.18359375 4.01171875 C15.69404742 9.54248286 15.69404742 9.54248286 16.6875 15 C16.790625 15.66 16.89375 16.32 17 17 C15 19 15 19 12.4375 19.1875 C10 19 10 19 9 18 C8.61978066 13.6908475 9.7165002 10.0911556 11 6 C10.13375 6.33 9.2675 6.66 8.375 7 C5.0259207 7.99231979 2.46720057 8.24189771 -1 8 C-2 7 -2 7 -2.1875 4.5625 C-2 2 -2 2 0 0 Z M12 14 C12 14.66 12 15.32 12 16 C12.66 15.67 13.32 15.34 14 15 C13.34 14.67 12.68 14.34 12 14 Z " fill="#FFFFFF" transform="translate(65,107)"/>
<path d="M0 0 C2.625 -0.1875 2.625 -0.1875 5 0 C6.41998539 2.39155435 7.15717717 4.15261005 6.640625 6.9375 C4.99783647 11.75634635 2.71401417 14.47644809 -1 18 C-1.350625 18.9075 -1.70125 19.815 -2.0625 20.75 C-3 23 -3 23 -4.9375 23.9375 C-7 24 -7 24 -10 22 C-9.875 19.1875 -9.875 19.1875 -9 16 C-6.0625 14.25 -6.0625 14.25 -3 13 C-2.34 12.34 -1.68 11.68 -1 11 C-1.25593812 8.9844873 -1.51856032 6.96702143 -1.90625 4.97265625 C-2 3 -2 3 0 0 Z M2 3 C3 5 3 5 3 5 Z " fill="#FFFFFF" transform="translate(151,46)"/>
<path d="M0 0 C2.5625 0.5625 2.5625 0.5625 5 2 C6.1875 4.5 6.1875 4.5 7 7 C9.22189824 9.22189824 11.08482708 9.92598892 14 11 C14 12.98 14 14.96 14 17 C11.125 17.625 11.125 17.625 8 18 C6 16 6 16 5.3125 13.625 C3.38849389 9.77698779 0.80565576 8.90282788 -3 7 C-3.1875 4.625 -3.1875 4.625 -3 2 C-2.01 1.34 -1.02 0.68 0 0 Z M10 13 C11 15 11 15 11 15 Z " fill="#FFFFFF" transform="translate(83,23)"/>
</svg>
